# xmcd
#
# Track frame offsets:
#	150
#	18050
#	34077
#	45472
#	61657
#	78942
#	89725
#	105565
#	125865
#	142482
#	164272
#	180745
#
# Disc length: 2819 seconds
#
# Revision: 0
# Processed by: cddbd v1.4PL0 Copyright (c) Steve Scherf et al.
# Submitted via: audiograbber 1.81.03
#
DISCID=9e0b010c
DTITLE=Charlie Musselwhite - Rough News
DYEAR=1997
DGENRE=Blues
TTITLE0=Both Sides Of The Fence
TTITLE1=I Sat and Cried
TTITLE2=Sleepwalk
TTITLE3=Natural Born Lover
TTITLE4=Darkest Hour
TTITLE5=Harlem Nocturne
TTITLE6=Drifting Boy
TTITLE7=Rough Dried Woman
TTITLE8=Feel It In Your Heart
TTITLE9=Rainy Highway
TTITLE10=Clarksdale Boogie
TTITLE11=Rough News
EXTD=
EXTT0=
EXTT1=
EXTT2=
EXTT3=
EXTT4=
EXTT5=
EXTT6=
EXTT7=
EXTT8=
EXTT9=
EXTT10=
EXTT11=
PLAYORDER=
